<svg version="1.2" xmlns="http://www.w3.org/2000/svg" viewBox="0 0 80 80" width="80" height="80">
	<defs>
		<radialGradient id="g1" cx="0" cy="0" r="1" gradientUnits="userSpaceOnUse" gradientTransform="matrix(13.307,0,0,13.307,37.286,59.222)">
			<stop offset="0" stop-color="#000000" stop-opacity="1"/>
			<stop offset="1" stop-color="#000000" stop-opacity="0"/>
		</radialGradient>
		<radialGradient id="g2" cx="0" cy="0" r="1" gradientUnits="userSpaceOnUse" gradientTransform="matrix(28.597,0,0,28.597,48.325,27.166)">
			<stop offset="0" stop-color="#000000" stop-opacity="1"/>
			<stop offset="1" stop-color="#000000" stop-opacity="0"/>
		</radialGradient>
		<radialGradient id="g3" cx="0" cy="0" r="1" gradientUnits="userSpaceOnUse" gradientTransform="matrix(9.891,0,0,9.891,48.912,28.555)">
			<stop offset="0" stop-color="#000000" stop-opacity="1"/>
			<stop offset=".321" stop-color="#000000" stop-opacity="1"/>
			<stop offset=".634" stop-color="#000000" stop-opacity="1"/>
			<stop offset="1" stop-color="#000000" stop-opacity="0"/>
		</radialGradient>
		<radialGradient id="g4" cx="0" cy="0" r="1" gradientUnits="userSpaceOnUse" gradientTransform="matrix(7.26,0,0,7.26,21.602,33.12)">
			<stop offset="0" stop-color="#000000" stop-opacity="1"/>
			<stop offset="1" stop-color="#000000" stop-opacity="0"/>
		</radialGradient>
		<linearGradient id="g5" x2="1" gradientUnits="userSpaceOnUse" gradientTransform="matrix(3.664,5.435,-3.947,2.661,25.368,14.127)">
			<stop offset="0" stop-color="#000000" stop-opacity="1"/>
			<stop offset=".999" stop-color="#000000" stop-opacity=".01"/>
		</linearGradient>
		<linearGradient id="g6" x2="1" gradientUnits="userSpaceOnUse" gradientTransform="matrix(-0.994,-6.998,4.699,-0.668,30.073,26.338)">
			<stop offset="0" stop-color="#000000" stop-opacity="1"/>
			<stop offset="1" stop-color="#000000" stop-opacity="0"/>
		</linearGradient>
	</defs>
	<style>
		.s0 { fill: #000000 } 
		.s1 { opacity: .6;fill: url(#g1) } 
		.s2 { opacity: .9;fill: url(#g2) } 
		.s3 { opacity: .17;fill: url(#g3) } 
		.s4 { fill: url(#g4) } 
		.s5 { opacity: .4;fill: url(#g5) } 
		.s6 { opacity: .65;fill: url(#g6) } 
	</style>
	<g id="roams/logo/roams_principal">
		<g id="Logo-Roams/Blanco/Simbolo">
			<g id="Group">
				<g id="Group">
					<path id="path-1" fill-rule="evenodd" class="s0" d="m40.22-0.3c22.23 0 40.26 18.02 40.26 40.26 0 22.23-18.03 40.26-40.26 40.26-22.24 0-40.26-18.03-40.26-40.26 0-22.24 18.02-40.26 40.26-40.26zm-6.56 17.39c-0.89-3.05-3.45-5.77-8.39-4.76-4.92 1-8.11 6.21-7.53 10.67 0.46 3.53 2.95 7.44 6.92 9.51q-0.36 0.35-0.71 0.75c-3.19 3.52-8.77 6.38-14.35 7.18-1.47 0.21-1.29 0.01-1.51 2.11-0.22 2.07-0.44 2.26 0.44 2.04 2.89-0.72 13.09-2.51 19.79-9.81q0.45-0.46 0.84-0.88c2.58 0.36 5.65 0.21 9.15-0.59q-0.42 0.63-0.86 1.32c-1.68 2.67-3.45 5.02-4.7 7.6l-0.26 0.52q-0.32 0.66-0.63 1.32l-0.25 0.53c-2.35 5.04-4.06 10.35 0.74 15.23 1.86 1.88 4.59 4.45 8.86 5.96 5.65 2 16.79-1.44 28.25-12.72 0.73-0.71 0.72-0.76-0.19-1.24-0.03-0.02-1.03-0.51-2.11-1.04l-0.38-0.19c-0.58-0.28-1.14-0.55-1.56-0.76q-1.88-0.9-3.8-1.73c-0.18-0.08-0.44 0.13-0.58 0.27-7.62 7.3-17.07 11.18-23.52 10.89q-0.27-0.56-0.38-1.18c-1.48-9.79 9.44-23.05 17.73-31.36 0.64-0.63 1-1.32 0.57-2.16-0.11-0.22-1.29-2.44-1.84-3.29-0.52-0.83-1.02-1.69-1.67-2.4-0.48-0.54-1.25-0.75-2.08-0.53-0.99 0.27-8.82 5-16.02 6.44 0.03-0.21 0.84-4.91 0.03-7.7zm-11.25 0.82c0.04-0.18 1.71-0.3 2.44-0.13 2.08 0.49 3.29 2.36 3.03 6.37 0 0.02-0.04 0.57-0.06 0.9-1.15-0.19-2.2-0.56-3.11-1.16-1.26-0.82-2.85-3.59-2.3-5.98z"/>
					<path id="Mask" fill-rule="evenodd" class="s1" d="m30.65 55.93c0.49 0.77 1.09 1.46 1.88 1.99 1.26 0.82 2.89 1.27 4.79 1.35q-0.27-0.56-0.38-1.18c-0.63-4.17 0.99-8.98 3.71-13.76l-7.9-2.1c-1.62 3.33-3.38 6.84-3.46 10.29-0.01 0.29 0.23 1.67 1.36 3.41z"/>
					<path id="Mask" fill-rule="evenodd" class="s2" d="m39.65 46.18c3.39-6.71 8.94-13.26 13.99-18.4 0.5-0.51 0.47-0.79-0.17-0.49-1.02 0.48-4.08 1.89-4.08 1.89-4.04 2.04-7.76 3.38-11.08 4.13q-0.42 0.63-0.86 1.32c-1.68 2.67-3.45 5.02-4.7 7.6q-0.75 1.51-1.46 3.06z"/>
					<path id="Mask-Copy" fill-rule="evenodd" class="s3" d="m39.65 46.18c3.39-6.71 8.94-13.26 13.99-18.4 0.5-0.51 0.47-0.79-0.17-0.49-1.02 0.48-4.08 1.89-4.08 1.89-4.04 2.04-7.76 3.38-11.08 4.13q-0.42 0.63-0.86 1.32c-1.68 2.67-3.45 5.02-4.7 7.6q-0.75 1.51-1.46 3.06z"/>
					<path id="Mask" fill-rule="evenodd" class="s4" d="m24.66 32.51q0 0-0.01 0-0.35 0.35-0.7 0.75c-2.15 2.36-5.36 4.43-8.93 5.77q-0.74 0.28-1.49 0.51c-0.18 0.13 10.88-3.35 14.73-5.82q-0.01 0-0.01 0-0.57-0.09-1.17-0.25c-0.82-0.22-1.66-0.53-2.42-0.96z"/>
					<path id="Mask" fill-rule="evenodd" class="s5" d="m27.88 13.23c-4.52-0.35-5.45 4.57-5.47 4.67 0.06-0.17 1.71-0.29 2.44-0.12 1.97 0.47 3.16 2.18 3.05 5.78h0.01l4.84 0.25c0-0.03 1.99-10.03-4.87-10.58z"/>
					<path id="Mask" fill-rule="evenodd" class="s6" d="m29.58 13.6l-4.73 4.18q0.45 0.06 0.9 0.34c1.52 0.79 2.35 2.65 2.13 6.03 0 0.02-0.04 0.57-0.06 0.9q0 0 0 0c1.34 0.22 3.4 0.04 4.71-0.11 0 0 2.24-9-2.95-11.34z"/>
				</g>
			</g>
			<path id="Combined-Shape" fill-rule="evenodd" class="s0" d="m130.68 24.07q4.79 0 8.59 2.05 3.8 2.04 5.93 5.66 2.14 3.63 2.14 8.24 0 4.62-2.14 8.27-2.13 3.66-5.93 5.7-3.8 2.05-8.59 2.05-4.73 0-8.53-2.05-3.8-2.04-5.93-5.7-2.14-3.65-2.14-8.27 0-4.61 2.14-8.24 2.13-3.62 5.93-5.66 3.8-2.05 8.53-2.05zm34.44 0q6.89 0 10.54 3.3 3.66 3.3 3.66 9.97v18.29h-6.9v-3.8l-0.18 0.27q-1.33 1.85-3.65 2.85-2.48 1.09-5.99 1.09-3.5 0-6.13-1.2-2.63-1.2-4.06-3.33-1.43-2.14-1.43-4.82 0-4.21 3.12-6.75 3.13-2.55 9.85-2.55h8.06v-0.46-0.33q-0.1-3.03-1.96-4.7-1.95-1.75-5.81-1.75-2.63 0-5.17 0.82-2.54 0.81-4.3 2.28l-2.86-5.32 0.36-0.26q2.34-1.68 5.54-2.61 3.45-0.99 7.31-0.99zm90.23 0q3.22 0 6.43 0.73 3.22 0.73 5.26 1.96l-2.8 5.55-0.4-0.23q-3.83-2.11-8.54-2.11-3.22 0-4.88 0.97-1.67 0.96-1.67 2.54 0 1.75 1.78 2.48 1.78 0.73 5.52 1.38 3.74 0.58 6.14 1.34 2.4 0.76 4.12 2.57 1.72 1.81 1.72 5.14 0 4.39-3.79 7.02-3.8 2.63-10.35 2.63-3.8 0-7.42-1-3.62-0.99-5.78-2.51l2.8-5.55 0.36 0.23q1.99 1.24 4.7 2.02 2.95 0.85 5.81 0.85 6.54 0 6.54-3.45 0-1.64-1.66-2.28-1.67-0.64-5.35-1.23-3.85-0.58-6.28-1.34-2.42-0.76-4.21-2.66-1.78-1.9-1.78-5.29 0-4.44 3.71-7.1 3.71-2.66 10.02-2.66zm-142.3 0v6.96l-0.37-0.07q-0.72-0.11-1.33-0.11-4.26 0-6.66 2.48-2.39 2.49-2.39 7.16v15.14h-7.31v-31.21h6.96v4.56l0.17-0.26q3.2-4.65 10.93-4.65zm111.55 0q5.9 0 9.35 3.42 3.45 3.42 3.45 10.26v17.88h-7.31v-16.95-0.38q-0.09-3.81-1.81-5.78-1.81-2.08-5.2-2.08-3.68 0-5.9 2.43-2.22 2.42-2.22 6.92v15.84h-7.31v-16.95-0.38q-0.08-3.81-1.81-5.78-1.81-2.08-5.2-2.08-3.74 0-5.93 2.4-2.19 2.39-2.19 6.95v15.84h-7.31v-31.21h6.96v3.98l0.25-0.3q1.69-1.89 4.13-2.92 2.63-1.11 5.84-1.11 3.51 0 6.23 1.32 2.71 1.31 4.29 3.88 1.93-2.45 4.97-3.83 3.04-1.37 6.72-1.37zm-52.59 18.17h-7.54l-0.31 0.01q-6 0.1-6 4.14 0 1.99 1.58 3.16 1.58 1.17 4.38 1.17 2.75 0 4.88-1.26 2.14-1.25 3.01-3.59zm-41.33-11.98q-4.03 0-6.63 2.69-2.6 2.68-2.6 7.07 0 4.38 2.6 7.07 2.6 2.69 6.63 2.69 4.03 0 6.66-2.69 2.63-2.69 2.63-7.07 0-4.39-2.63-7.07-2.63-2.69-6.66-2.69z"/>
		</g>
	</g>
</svg>